<?xml version="1.0" encoding="iso-8859-1"?>
<!-- Generator: Adobe Illustrator 18.1.1, SVG Export Plug-In . SVG Version: 6.00 Build 0)  -->
<svg version="1.1" id="Capa_1" xmlns="http://www.w3.org/2000/svg" xmlns:xlink="http://www.w3.org/1999/xlink" x="0px" y="0px"
	 viewBox="0 0 612 612" style="enable-background:new 0 0 612 612;" xml:space="preserve">
<g>
	<g>
		<path d="M523.147,86.858c-10.589,0-19.203-8.615-19.203-19.203V52.973c0-10.588,8.614-19.203,19.203-19.203
			c9.325,0,16.885-7.56,16.885-16.885S532.472,0,523.147,0c-0.001,0-0.001,0-0.001,0h-0.001h-395.8
			C96.81,0,71.968,24.84,71.968,55.375v403.842c0,30.532,24.84,55.375,55.376,55.375h14.705v80.524
			c0,6.104,3.295,11.732,8.615,14.719c2.571,1.445,5.423,2.165,8.269,2.165c3.046,0,6.09-0.825,8.784-2.465l52.497-32.025
			l52.576,32.025c2.694,1.641,5.738,2.465,8.784,2.465c2.846,0,5.699-0.72,8.269-2.165c5.321-2.987,8.614-8.615,8.614-14.719
			v-80.524h224.684c9.326,0,16.885-7.56,16.885-16.885V103.77c0-0.011,0.003-0.02,0.003-0.028
			C540.032,94.419,532.472,86.858,523.147,86.858z M105.737,55.375c0-11.912,9.693-21.605,21.607-21.605h346.447
			c-2.326,5.957-3.616,12.433-3.616,19.203v14.681c0,6.772,1.29,13.246,3.616,19.203h-32.925H105.737V55.375z M264.691,565.059
			l-35.652-21.716c-5.427-3.307-11.978-2.932-17.137,0c-0.028,0.011-36.085,21.716-36.085,21.716v-50.467h88.872v50.467H264.691z
			 M506.26,480.823H127.344c-11.914,0-21.605-9.693-21.605-21.605V142.234v-21.607h335.127h65.396v360.196H506.26z"/>
	</g>
</g>
<g>
</g>
<g>
</g>
<g>
</g>
<g>
</g>
<g>
</g>
<g>
</g>
<g>
</g>
<g>
</g>
<g>
</g>
<g>
</g>
<g>
</g>
<g>
</g>
<g>
</g>
<g>
</g>
<g>
</g>
</svg>
